<?xml version="1.0" encoding="UTF-8"?>
<svg version="1.1" xmlns="http://www.w3.org/2000/svg" width="192" height="192">
<g transform="translate(0,0)">
  <rect x="8" y="8" width="176" height="176" rx="25" ry="25"
        fill="#000" stroke="#bfbfbf" stroke-width="5"/>
</g>
<path d="M0 0 C1.91083626 -0.01029488 1.91083626 -0.01029488 3.86027527 -0.02079773 C7.34395762 -0.03869984 10.82738766 -0.03756595 14.31110215 -0.03185534 C17.22586323 -0.02875801 20.14057623 -0.03486225 23.05533046 -0.04089409 C29.93666747 -0.05492914 36.81788032 -0.05338766 43.69921875 -0.04199219 C50.78159613 -0.03052242 57.86359432 -0.04456946 64.94592172 -0.07138866 C71.04042745 -0.09359713 77.13481461 -0.10017119 83.2293579 -0.09431225 C86.86314484 -0.09095244 90.49668901 -0.0932917 94.13044167 -0.11056328 C98.18746278 -0.12900558 102.24375436 -0.1147927 106.30078125 -0.09765625 C108.08955185 -0.1121582 108.08955185 -0.1121582 109.91445923 -0.12695312 C117.51662433 -0.0598652 123.83640167 0.89197104 129.96149921 5.66381168 C133.15667327 9.68437608 133.59534943 14.29346804 133.61863708 19.27279663 C133.62861221 20.42222244 133.63858734 21.57164825 133.64886475 22.75590515 C133.64952942 24.00281631 133.65019409 25.24972748 133.65087891 26.53442383 C133.65850748 27.8720699 133.66693617 29.2097116 133.67610168 30.54734802 C133.69798247 34.16932377 133.70683667 37.79121513 133.71192813 41.41324949 C133.71557875 43.67909073 133.7218224 45.94491009 133.72892952 48.21074295 C133.75339991 56.12382218 133.76647108 64.03683605 133.77001953 71.94995117 C133.77365487 79.31299718 133.80355595 86.67562638 133.84542412 94.03854501 C133.88016736 100.37166175 133.89556865 106.70464057 133.89626557 113.03785193 C133.89705689 116.81533013 133.90572865 120.59238316 133.93426323 124.36976242 C133.96051442 127.92406708 133.96261086 131.47759612 133.94660759 135.03195381 C133.9439402 136.94840002 133.96592776 138.86483162 133.98880005 140.78114319 C133.92868311 147.89314145 133.20227812 152.98671438 128.34448242 158.40405273 C123.58856398 162.08988953 118.73129251 162.52734423 112.85501099 162.5377655 C111.76441376 162.54203049 110.67381653 162.54629547 109.5501709 162.5506897 C108.36354858 162.55023651 107.17692627 162.54978333 105.9543457 162.54931641 C104.69689545 162.55267502 103.43944519 162.55603363 102.14389038 162.55949402 C98.70167259 162.56831125 95.25947967 162.57067117 91.81725168 162.5713098 C89.66450016 162.57202158 87.51175493 162.57415832 85.35900497 162.57680702 C77.84260406 162.58605279 70.32622086 162.59014286 62.80981445 162.58935547 C55.81330261 162.58875483 48.81686789 162.59930593 41.82037556 162.61509913 C35.80492483 162.62819195 29.78949925 162.63353864 23.77403438 162.63290006 C20.18507414 162.63264559 16.59618248 162.6354685 13.00723648 162.64607811 C9.00257374 162.65759399 4.99808297 162.65300163 0.9934082 162.64697266 C-0.18916565 162.65259216 -1.3717395 162.65821167 -2.59014893 162.66400146 C-9.57811249 162.63726369 -15.31971593 162.45102193 -21.40551758 158.71655273 C-27.66639558 152.28176145 -27.08577861 144.83403698 -27.04370117 136.35961914 C-27.04895813 135.05632156 -27.05421509 133.75302399 -27.05963135 132.41023254 C-27.07325773 128.85015304 -27.06802512 125.29033562 -27.05849409 121.73025179 C-27.05086991 117.99353132 -27.05795103 114.25683248 -27.06265259 110.52011108 C-27.06810349 104.24407955 -27.06093747 97.96815408 -27.04663086 91.69213867 C-27.0303198 84.4535866 -27.0355842 77.21528827 -27.05211008 69.97674239 C-27.065761 63.74634156 -27.06762662 57.51601676 -27.05979407 51.28560579 C-27.05513547 47.57140029 -27.05444213 43.85731369 -27.06440353 40.143116 C-27.07474557 35.99768515 -27.06037718 31.85268561 -27.04370117 27.70727539 C-27.04977386 26.48828049 -27.05584656 25.26928558 -27.06210327 24.01335144 C-27.01374442 17.50698448 -26.77036013 11.26957596 -23.65551758 5.40405273 C-21.34301758 4.02905273 -21.34301758 4.02905273 -18.65551758 3.40405273 C-17.87110794 2.9044957 -17.0866983 2.40493866 -16.27851868 1.89024353 C-10.89056328 -0.31994893 -5.77003317 -0.02167108 0 0 Z " fill="#010101" transform="translate(42.655517578125,18.595947265625)"/>
<path d="M0 0 C6.67715868 3.40478346 11.73265268 8.4338364 16.6953125 13.96875 C17.67177734 15.04769531 17.67177734 15.04769531 18.66796875 16.1484375 C21.2064949 19.00495313 23.64362862 21.9030975 26.0078125 24.90625 C27.53405008 27.05855875 27.53405008 27.05855875 29.6953125 27.96875 C31.97296231 28.04007669 34.25252817 28.05330996 36.53125 28.0390625 C37.91928337 28.04764708 39.3073061 28.05812313 40.6953125 28.0703125 C42.88394835 28.08701215 45.07020781 28.09375121 47.25878906 28.06835938 C59.4176846 27.94759382 59.4176846 27.94759382 62.54150391 30.44433594 C64.68924538 34.04408518 65.42308781 37.85980069 65.22265625 41.97265625 C64.22250375 45.75841868 61.64654251 48.49144014 58.6953125 50.96875 C55.02984457 52.19057264 51.65924034 52.10838364 47.84326172 52.09814453 C46.64532486 52.10077301 46.64532486 52.10077301 45.42318726 52.10345459 C42.78210277 52.10785788 40.14108517 52.10494102 37.5 52.1015625 C35.66822293 52.10223584 33.83644595 52.10320612 32.00466919 52.10446167 C28.16635283 52.10593647 24.32805975 52.10379057 20.48974609 52.09912109 C15.55862012 52.09341589 10.62754848 52.09670919 5.69642448 52.10269356 C1.91504503 52.10629819 -1.86632143 52.10516118 -5.64770126 52.10256577 C-7.46666343 52.10189664 -9.28562675 52.10272441 -11.10458755 52.10504532 C-13.64023236 52.10757111 -16.17578768 52.10373268 -18.71142578 52.09814453 C-19.46987793 52.10016876 -20.22833008 52.10219299 -21.00976562 52.10427856 C-26.1904232 52.0830143 -26.1904232 52.0830143 -27.3046875 50.96875 C-27.39169092 49.33402118 -27.41169813 47.69560945 -27.40234375 46.05859375 C-27.39984619 45.167771 -27.39734863 44.27694824 -27.39477539 43.35913086 C-27.38567139 42.21968018 -27.37656738 41.08022949 -27.3671875 39.90625 C-27.3465625 36.296875 -27.3259375 32.6875 -27.3046875 28.96875 C-13.4446875 28.63875 0.4153125 28.30875 14.6953125 27.96875 C13.08407156 21.52378625 9.1470756 17.64590689 3.6953125 13.96875 C-1.7267973 12.65477265 -6.88238464 12.69595782 -12.4296875 12.84375 C-13.8776052 12.84569613 -15.32553633 12.84312474 -16.7734375 12.8359375 C-20.28553948 12.82818769 -23.79351257 12.8813375 -27.3046875 12.96875 C-27.3046875 9.33875 -27.3046875 5.70875 -27.3046875 1.96875 C-19.33525806 -2.78249967 -8.76024959 -2.73369491 0 0 Z " fill="#F7F7F7" transform="translate(77.3046875,61.03125)"/>
<path d="M0 0 C8.91 0 17.82 0 27 0 C26.67 1.65 26.34 3.3 26 5 C30.95 5 35.9 5 41 5 C40.505 2.525 40.505 2.525 40 0 C48.91 0 57.82 0 67 0 C66.67 1.65 66.34 3.3 66 5 C67.02939697 4.98428955 67.02939697 4.98428955 68.07958984 4.96826172 C71.17802289 4.92678126 74.27639761 4.90069931 77.375 4.875 C78.45523438 4.85824219 79.53546875 4.84148437 80.6484375 4.82421875 C81.6796875 4.81777344 82.7109375 4.81132813 83.7734375 4.8046875 C85.20308838 4.78897705 85.20308838 4.78897705 86.66162109 4.77294922 C89 5 89 5 91 7 C90.67 8.32 90.34 9.64 90 11 C60.3 11 30.6 11 0 11 C-0.97212003 7.11151988 -0.88140915 5.72150531 0 2 C0 1.34 0 0.68 0 0 Z " fill="#F1F1F1" transform="translate(51,119)"/>
<path d="M0 0 C3.16616599 -0.14700056 6.33143982 -0.23462106 9.5 -0.3125 C10.8303125 -0.3753418 10.8303125 -0.3753418 12.1875 -0.43945312 C21.38530865 -0.60853049 26.02014816 2.98737934 32.5 9.171875 C34.00782317 10.69018737 35.50775432 12.21637489 37 13.75 C38.16208984 14.91982422 38.16208984 14.91982422 39.34765625 16.11328125 C45 21.84537588 45 21.84537588 45 23 C36.0937417 24.76447068 26.65606822 26.07161933 18.75146484 20.85693359 C11.75642365 15.13439713 5.5281046 8.12690717 0 1 C0 0.67 0 0.34 0 0 Z " fill="#F8F8F8" transform="translate(86,62)"/>
<path d="M0 0 C4.37477474 -0.11651725 8.74914827 -0.18736 13.125 -0.25 C14.3625 -0.28351563 15.6 -0.31703125 16.875 -0.3515625 C27.15558542 -0.46210643 27.15558542 -0.46210643 30.8046875 1.828125 C33 4 33 4 34 7 C22.78 7 11.56 7 0 7 C0 4.69 0 2.38 0 0 Z " fill="#EAEAEA" transform="translate(50,78)"/>
<path d="M0 0 C44.22 0 88.44 0 134 0 C134 0.33 134 0.66 134 1 C89.78 1 45.56 1 0 1 C0 0.67 0 0.34 0 0 Z " fill="#000000" transform="translate(29,17)"/>
<path d="M0 0 C0.99 0.33 1.98 0.66 3 1 C2.01 1 1.02 1 0 1 C0 0.67 0 0.34 0 0 Z " fill="#000000" transform="translate(166,19)"/>
<path d="M0 0 C0.66 0.33 1.32 0.66 2 1 C1.01 1 0.02 1 -1 1 C-0.67 0.67 -0.34 0.34 0 0 Z " fill="#000000" transform="translate(24,19)"/>
<path d="M0 0 C3 1 3 1 3 1 Z " fill="#000000" transform="translate(163,18)"/>
<path d="M0 0 C3 1 3 1 3 1 Z " fill="#000000" transform="translate(26,18)"/>
<path d="" fill="#000000" transform="translate(0,0)"/>
<path d="" fill="#000000" transform="translate(0,0)"/>
<path d="" fill="#000000" transform="translate(0,0)"/>
<path d="" fill="#000000" transform="translate(0,0)"/>
</svg>
